<?xml version="1.0" encoding="UTF-8"?>
<svg width="200mm" height="200mm" version="1.1" viewBox="0 0 200 200" xml:space="preserve" xmlns="http://www.w3.org/2000/svg" xmlns:xlink="http://www.w3.org/1999/xlink"><defs><linearGradient id="linearGradient1"><stop stop-color="#afe7f9" offset="0"/><stop stop-color="#54d6f9" offset=".31574"/><stop stop-color="#085ea1" offset="1"/></linearGradient><radialGradient id="radialGradient2" cx="66.53" cy="132.43" r="32.727" gradientTransform="matrix(1.9726 0 0 1.9718 -52.709 -192.58)" gradientUnits="userSpaceOnUse" xlink:href="#linearGradient1"/><radialGradient id="radialGradient2-8" cx="66.53" cy="132.43" r="32.727" gradientTransform="matrix(1.9726 0 0 1.9718 -52.709 -191.45)" gradientUnits="userSpaceOnUse" xlink:href="#linearGradient1"/><filter id="filter149" x="-.0038837" y="-.0038841" width="1.0078" height="1.0078" color-interpolation-filters="sRGB"><feTurbulence baseFrequency="0.20000000000000001" numOctaves="10" result="result0" type="fractalNoise"/><feConvolveMatrix kernelMatrix="-2 0 -2 0 -10 0 -2 0 -2 " order="3 3" result="result5"/><feColorMatrix in="result5" result="result4" type="saturate" values="0"/><feComposite in="SourceGraphic" in2="result4" k1="1.5" k2="0.5" k3="0.5" operator="arithmetic" result="result2"/><feBlend in2="result4" mode="color-burn" result="result6"/><feComposite in="result6" in2="SourceGraphic" operator="in" result="result3"/></filter><filter id="filter162" x="-.053276" y="-.035366" width="1.1065" height="1.0783" color-interpolation-filters="sRGB"><feGaussianBlur stdDeviation="1.317919"/></filter><filter id="filter165" x="0" y="0" width="1" height="1" color-interpolation-filters="sRGB"><feTurbulence baseFrequency="0.050415984424920131" numOctaves="10" result="result0" type="fractalNoise"/><feConvolveMatrix kernelMatrix="-2 0 -2 0 -10 0 -2 0 -2 " order="3 3" result="result5"/><feColorMatrix in="result5" result="result4" type="saturate" values="0"/><feComposite in="SourceGraphic" in2="result4" k1="1.5" k2="0.5" k3="0.5" operator="arithmetic" result="result2"/><feBlend in2="result4" result="result6"/><feComposite in="result6" in2="SourceGraphic" operator="in" result="result3"/></filter><filter id="filter165-3" x="0" y="0" width="1" height="1" color-interpolation-filters="sRGB"><feTurbulence baseFrequency="0.050415984424920131" numOctaves="10" result="result0" type="fractalNoise"/><feConvolveMatrix kernelMatrix="-2 0 -2 0 -10 0 -2 0 -2 " order="3 3" result="result5"/><feColorMatrix in="result5" result="result4" type="saturate" values="0"/><feComposite in="SourceGraphic" in2="result4" k1="1.5" k2="0.5" k3="0.5" operator="arithmetic" result="result2"/><feBlend in2="result4" result="result6"/><feComposite in="result6" in2="SourceGraphic" operator="in" result="result3"/></filter></defs><g><path d="m19.427 19.427h161.15v161.15h-161.15z" fill="#80562d" style="paint-order:markers fill stroke"/><path d="m22.771 22.71h153.46v153.46h-153.46z" fill="#010000" style="paint-order:markers fill stroke"/><path transform="matrix(1.0565 0 0 1.0501 -10.453 -3.7827)" d="m103.91 22.102h76.903v153.46h-76.903z" style="mix-blend-mode:color-burn;paint-order:markers fill stroke"/></g><g fill="#feb619"><path d="m99.326 22.71h76.903v153.46h-76.903z" style="paint-order:markers fill stroke"/><path d="m99.326 22.71h76.903v153.46h-76.903z" filter="url(#filter165)" opacity=".37593" style="mix-blend-mode:normal;paint-order:markers fill stroke"/></g><g transform="translate(-69.478 85.152)" fill="#fff"><path d="m245.71-62.442v153.46h-76.903z" style="paint-order:markers fill stroke"/><path d="m245.71-62.442v153.46h-76.903z" filter="url(#filter165-3)" opacity=".37593" style="mix-blend-mode:normal;paint-order:markers fill stroke"/></g><g stroke="#045095" stroke-linecap="square" stroke-width=".94111"><path d="m160.59 98.831a60.586 60.586 0 01-60.346 60.585 60.586 60.586 0 01-60.823-60.106 60.586 60.586 0 0159.865-61.06 60.586 60.586 0 0161.296 59.623" fill="url(#radialGradient2)" style="paint-order:markers fill stroke"/><path transform="matrix(1.0043 0 0 1.0043 -.43334 -.43314)" d="m160.59 99.954a60.586 60.586 0 01-60.346 60.585 60.586 60.586 0 01-60.823-60.106 60.586 60.586 0 0159.865-61.06 60.586 60.586 0 0161.296 59.623" fill="url(#radialGradient2-8)" filter="url(#filter149)" opacity=".12285" style="paint-order:markers fill stroke"/></g><path d="m80.96 138.37c-3.1263 3.3298-2.444 8.3931-4.8549 11.553-2.0259 2.3574 6.0745 6.0406 1.9516 2.1108 2.1534-2.6408 1.8765-7.7712 4.3259-11.174 1.8567-1.611-.45412-1.541-1.4225-2.4898zm17.54-11.19c-3.9804.77211-3.6645 5.6503-6.5461 7.7951-2.4189 2.9083-8.2135 1.3868-10.519 2.714 2.9898 2.3428.97721-.37672-.82164.0585 5.325 2.972-6.0279-5.8211-.18146-1.558-3.9951-3.1534 7.266-3.2277 3.2089-5.3694-4.297-1.6625-9.1402 4.4792-3.4607 5.7105-4.6547-3.1684 2.9074 4.5321 2.3026 2.1708-4.3494-2.3658 2.5682 2.4383 4.0654-.57564 5.0881 1.07 8.7039-2.3676 10.37-6.4794 1.3559-2.707 6.2172-2.4275 1.5819-4.4664zm22.369-43.673c-5.7251-3.6961 4.1468-5.221 3.953-9.4993-.60318-4.5519-2.6938-9.2144-5.4354-12.859-3.123-3.2516-6.4795-6.5059-10.666-8.3154 2.4385 3.1053 4.9126-4.3503.69164-4.7561 3.0633 3.0115-.35891-4.2903-2.8632-4.1352-1.9416-.92333-3.9449-1.6275-1.278-.30528-2.8039-2.6636-6.5487-2.9359-10.044-1.4911-3.1937.37174 2.7842 2.5576-.50063.1339-2.0872-2.0024-4.7537-1.2938-1.1673-.04159 3.4036 1.63-2.8898-2.2543.06978.2951 2.3108 3.6854 6.9831-2.2303 10.008.60274 1.792.4641-2.247-1.204 1.1014.67864 1.6937.47134 5.9943 2.8771 2.3588.6278-.46369 2.1518 4.1717 5.5667 3.7516 4.8334-2.1789-2.3099-.5081 2.9357-2.5671 3.239.20187 1.5887 5.445 4.2214 1.6658 2.6163 2.9533 2.2337 6.0235 3.5878 8.4102 6.2093 1.5163 4.0866 5.4103 8.3476 4.2557 13.093-2.098 2.9027-9.1108 5.5465-3.1739 8.4477.47688.20867.95377.41734 1.4306.62601zm.54823 1.9504c3.8283 3.9593 8.1856-.20993 12.169-1.224 3.8309 2.6615 6.867-1.1532 5.3276-4.8576.29158-2.7205.0538-5.9518-.72001-7.8463 3.2589-1.6946 8.1587-3.5887 10.525-4.5537-2.7873-1.0748 5.3472 2.6448.72402-.22918-2.4847-.62239 2.827 1.7389-.8716-.2612-4.0599-1.2354-8.1482 2.7677-12.215 3.8573.80657 2.9691.16502 7.7178.82219 11.623-1.9145 3.9683-6.9397-1.1839-9.6201 2.7392-2.3535 1.7723-4.9217 1.3333-6.4914-.53498 2.2003 3.1622 1.1047.41177.17972.79651l.0937.26808zm-.19227 23.237c2.2869-4.3471 9.9266-3.9298 9.4813-9.9064 1.9313-4.9938-4.8247-11.708-6.6083-11.217-.50587-3.1106-1.4857-2.8654-1.6535-3.8026.43222-1.8019-1.1292-1.6002-.19311.09626.54423-4.2591-7.2824-1.7959-9.8603-1.4259-1.2266.66076-2.7149.44698-.89395 1.1008.16272-1.9644-5.156-5.3726-3.6055-3.9013-.23384-.44727-3.8856-2.3706-1.3123-.95582-2.984-4.5108-6.2776-.13741-8.4768.76676-4.5649.43339-6.3412 5.1152-5.6394 8.8861-1.0445 2.9129-9.6402 4.052-3.2894 4.4269 3.3931-1.729 4.9734-5.0807 3.6487-9.0369 1.437-4.0048 7.3577-2.9626 9.0034-5.2333 1.5342-.92747 2.9013-1.878 2.6414-1.1427.95363.96074 2.4665 1.8548 1.5104 1.2294.90137 1.1696 4.2562 2.0671 2.5692 1.4359 1.235 6.3071 6.9199 1.9137 10.941 3.7538-2.9014-2.4118 1.0549 3.7037 3.3893 2.8326-5.7819-3.4111 7.7988 5.5798 1.8755 1.6496 4.3514 2.654 4.9207 8.225 3.382 12.66-1.3652 2.7611-10.519 4.1841-7.6447 7.3334.24517.15015.49035.3003.73553.45045zm-7.9581 27.792c-2.7953-1.4093.96728.72037-1.8013-1.0759-2.0665-2.1593-6.55-3.256-5.1618-2.9534-.83451-1.1279-6.026-2.6169-2.3216-.98058-.68527-2.1576-8.1316-5.8245-3.426-3.1871-1.4798-1.7108-3.4449-5.3973-3.3595-7.4319 4.5356-2.541.23814-8.8208 5.7671-11.083 2.4945-4.5167 7.9447-6.2858 12.69-6.0969 1.7823-.16374-2.5704-1.8193.21982-.0201 1.6947 2.6686 5.3941 4.1816 4.0585 7.5196.0821 3.8852.0538 9.4352 4.1659 10.812-1.7367-1.0288-3.0884-7.5988-2.6807-11.251 1.5355-3.3296-3.7597-8.0521-6.9125-8.3884-.83448.00092.50795-1.7421-2.1137-1.8924-4.7903 2.7679-8.6138 3.7862-10.547 7.4608-3.7091 2.4748-5.4587 5.648-5.3337 9.4005-4.976 2.0948 1.0389 6.9622 1.7633 10.103 1.4224.27936 4.5049 2.6127 1.2406.56008 1.6941 1.8602 4.0395 4.4726 6.4022 4.4344-4.9868-2.611 4.6702 3.14 1.9457 1.0076 1.2844 1.1393 7.3944 7.437 6.169 3.6649-.25492-.20049-.50984-.40097-.76476-.60146zm-2.5928 20.774c1.1658-3.3284-4.608-7.3061-5.1885-6.8922 1.5208.6601-3.9027-2.4278-5.6075-1.1118-1.868-.53001 2.3763 1.5165-.61738-.0936-1.1168-.61417-4.4899-1.7857-1.3763-.31855-3.9242-3.3052-7.9949 2.2888-10.127 5.1743 2.1453 3.2349 3.9683-3.9221 6.9622-4.3789 1.6929-1.1736 3.5048-.63106.78652-1.8887 1.2614 1.2636 5.805 2.7474 3.0447 1.3707 2.1303 1.6331 8.1011 1.0606 8.4233 2.2055-1.9009-1.7611 2.7844 3.8443 2.3532 5.2328.44878.23345.89755.46691 1.3463.70036zm-.36168 1.7067c-.87017-4.3388-1.7655-8.9324.95531-12.842.39937-2.3941 4.6525-4.9402 4.4412-6.8346 1.3442-3.9132 5.6779-5.9834 9.2167-9.198.49328-4.5197-2.2315-8.283 2.6317-8.4142 3.8024-3.1207 12.268-4.1735 16.494-6.3877 2.3079-2.121 10.071-.51591 9.848-2.156-3.3222-1.4659-7.6258-.17463-11.086.65383-4.0372 2.5744-12.686 1.4858-16.254 5.0356-4.0814-.35052-4.7148 1.7044-2.9674 6.5814.51879 3.5394-2.0267 5.1492-4.5208 7.2332-1.053.87985-1.6945 2.6064-2.7429 3.3659-4.4529.58057-2.2967 8.1832-7.6082 5.6776-.65012.68966-1.4165 1.8902-.88314 2.8514.88314 1.5915 1.6332 3.3729 0 4.5552-.40634 2.9054.82416 6.1293-1.5865 7.8899 1.7895.27851 2.5858 1.1891 4.0619 1.9887z" fill="#fff" style="paint-order:markers fill stroke"/><path d="m80.96 138.37c-3.1263 3.3298-2.444 8.3931-4.8549 11.553-2.0259 2.3574 6.0745 6.0406 1.9516 2.1108 2.1534-2.6408 1.8765-7.7712 4.3259-11.174 1.8567-1.611-.45413-1.541-1.4226-2.4898zm17.54-11.19c-3.9804.77211-3.6645 5.6503-6.5461 7.7951-2.4189 2.9083-8.2135 1.3868-10.519 2.714 2.9898 2.3428.97721-.37672-.82164.0585 5.325 2.972-6.0279-5.8211-.18146-1.558-3.9951-3.1534 7.266-3.2277 3.2089-5.3694-4.297-1.6625-9.1402 4.4792-3.4607 5.7105-4.6547-3.1684 2.9074 4.5321 2.3026 2.1708-4.3494-2.3658 2.5682 2.4383 4.0654-.57564 5.088 1.07 8.7039-2.3676 10.37-6.4794 1.3559-2.707 6.2172-2.4275 1.5819-4.4664zm22.369-43.673c-5.7251-3.6961 4.1468-5.221 3.953-9.4993-.60318-4.5519-2.6938-9.2144-5.4354-12.859-3.123-3.2516-6.4795-6.5059-10.666-8.3154 2.4385 3.1053 4.9126-4.3503.69164-4.7561 3.0633 3.0115-.35891-4.2903-2.8632-4.1352-1.9416-.92333-3.9449-1.6275-1.278-.30528-2.8039-2.6636-6.5487-2.9359-10.044-1.4911-3.1937.37174 2.7842 2.5576-.50063.1339-2.0872-2.0024-4.7537-1.2938-1.1673-.04159 3.4036 1.63-2.8898-2.2543.0698.2951 2.3108 3.6854 6.9831-2.2303 10.008.60274 1.792.4641-2.247-1.204 1.1014.67864 1.6937.47134 5.9943 2.8771 2.3588.6278-.46369 2.1518 4.1717 5.5667 3.7516 4.8334-2.1789-2.3099-.5081 2.9357-2.5671 3.239.20187 1.5887 5.445 4.2214 1.6658 2.6163 2.9533 2.2337 6.0235 3.5878 8.4102 6.2093 1.5163 4.0866 5.4103 8.3476 4.2557 13.093-2.098 2.9027-9.1108 5.5465-3.1739 8.4477.47688.20868.95377.41735 1.4306.62602zm.54823 1.9504c3.8283 3.9593 8.1856-.20993 12.169-1.224 3.8309 2.6615 6.867-1.1532 5.3276-4.8576.29158-2.7205.0538-5.9518-.72001-7.8463 3.2589-1.6946 8.1587-3.5887 10.525-4.5537-2.7873-1.0748 5.3472 2.6448.72402-.22918-2.4847-.62239 2.827 1.7389-.8716-.2612-4.0599-1.2354-8.1482 2.7677-12.215 3.8573.80657 2.9691.16502 7.7178.82219 11.623-1.9145 3.9683-6.9397-1.1839-9.6201 2.7392-2.3535 1.7723-4.9217 1.3334-6.4914-.53497 2.2003 3.1622 1.1047.41177.17972.79651l.0937.26807zm-.19227 23.237c2.2869-4.3471 9.9266-3.9298 9.4813-9.9064 1.9313-4.9938-4.8247-11.708-6.6083-11.217-.50587-3.1106-1.4857-2.8654-1.6535-3.8026.43222-1.802-1.1292-1.6002-.19311.0963.54423-4.2591-7.2824-1.7959-9.8603-1.4259-1.2266.66075-2.7149.44698-.89395 1.1008.16272-1.9644-5.156-5.3726-3.6055-3.9013-.23384-.44727-3.8856-2.3706-1.3123-.95582-2.984-4.5108-6.2776-.13741-8.4768.76676-4.5649.43339-6.3412 5.1152-5.6394 8.8861-1.0446 2.9129-9.6402 4.052-3.2894 4.4269 3.3931-1.729 4.9734-5.0807 3.6487-9.0369 1.437-4.0048 7.3577-2.9626 9.0034-5.2333 1.5342-.92747 2.9013-1.878 2.6414-1.1427.95363.96074 2.4665 1.8548 1.5104 1.2294.90137 1.1696 4.2562 2.0671 2.5692 1.4359 1.235 6.3071 6.9199 1.9137 10.941 3.7538-2.9014-2.4118 1.0549 3.7037 3.3893 2.8326-5.7819-3.4111 7.7988 5.5798 1.8755 1.6496 4.3514 2.654 4.9207 8.225 3.382 12.66-1.3652 2.7611-10.519 4.1841-7.6447 7.3334.24517.15015.49035.3003.73553.45045zm-7.9581 27.792c-2.7953-1.4093.96728.72037-1.8013-1.0759-2.0665-2.1593-6.55-3.256-5.1618-2.9534-.83451-1.1279-6.026-2.6169-2.3216-.98058-.68527-2.1576-8.1316-5.8245-3.426-3.1871-1.4798-1.7108-3.4449-5.3973-3.3595-7.4319 4.5356-2.541.23814-8.8208 5.7671-11.083 2.4945-4.5167 7.9447-6.2858 12.69-6.0969 1.7823-.16374-2.5704-1.8193.21982-.0201 1.6947 2.6686 5.3941 4.1816 4.0585 7.5196.0821 3.8852.0538 9.4352 4.1659 10.812-1.7367-1.0288-3.0884-7.5988-2.6807-11.251 1.5355-3.3296-3.7597-8.0521-6.9125-8.3884-.83448.00092.50795-1.7421-2.1137-1.8924-4.7903 2.7679-8.6138 3.7862-10.547 7.4608-3.7091 2.4748-5.4588 5.648-5.3337 9.4005-4.976 2.0948 1.0389 6.9622 1.7633 10.103 1.4224.27936 4.5049 2.6127 1.2406.56008 1.6941 1.8602 4.0395 4.4726 6.4022 4.4344-4.9868-2.611 4.6702 3.14 1.9457 1.0076 1.2844 1.1393 7.3944 7.437 6.169 3.6649-.25492-.20049-.50984-.40097-.76476-.60146zm-2.5928 20.774c1.1658-3.3284-4.608-7.3061-5.1885-6.8922 1.5208.6601-3.9027-2.4278-5.6075-1.1118-1.8679-.53001 2.3763 1.5165-.61737-.0936-1.1168-.61417-4.4899-1.7857-1.3763-.31855-3.9242-3.3052-7.9949 2.2888-10.127 5.1743 2.1453 3.2349 3.9683-3.9221 6.9622-4.3789 1.6929-1.1736 3.5048-.63106.78652-1.8887 1.2614 1.2636 5.805 2.7474 3.0446 1.3707 2.1303 1.6331 8.1011 1.0606 8.4233 2.2055-1.9009-1.7611 2.7844 3.8443 2.3532 5.2328.44878.23345.89755.46691 1.3463.70036zm-.36168 1.7067c-.87017-4.3388-1.7655-8.9324.95531-12.842.39937-2.3941 4.6525-4.9402 4.4412-6.8346 1.3442-3.9132 5.6779-5.9834 9.2167-9.198.49328-4.5197-2.2315-8.283 2.6317-8.4142 3.8024-3.1207 12.268-4.1735 16.494-6.3877 2.3079-2.121 10.071-.51591 9.848-2.156-3.3222-1.4659-7.6258-.17463-11.086.65383-4.0372 2.5744-12.686 1.4858-16.254 5.0356-4.0814-.35052-4.7148 1.7044-2.9674 6.5814.51879 3.5394-2.0267 5.1492-4.5208 7.2332-1.053.87985-1.6945 2.6064-2.7429 3.3659-4.4529.58057-2.2967 8.1832-7.6082 5.6776-.65012.68966-1.4165 1.8902-.88314 2.8514.88314 1.5915 1.6332 3.3729 0 4.5552-.40634 2.9054.82416 6.1293-1.5865 7.8899 1.7895.27851 2.5858 1.1891 4.0619 1.9887z" fill="#fff" filter="url(#filter162)" stroke="#fff" stroke-linecap="square" stroke-width="2" style="paint-order:markers fill stroke"/></svg>
